<?xml version="1.0" encoding="UTF-8"?>
<svg id="Capa_2" data-name="Capa 2" xmlns="http://www.w3.org/2000/svg" viewBox="0 0 3082.13 2809.02">
  <defs>
    <style>
      .cls-1 {
        fill: none;
        stroke: #113b33;
        stroke-linecap: round;
        stroke-linejoin: round;
        stroke-width: 90px;
      }

      .cls-2 {
        font-family: TVA2012, 'TVA 2012';
        font-size: 799.66px;
        letter-spacing: -.04em;
      }
    </style>
  </defs>
  <g id="Capa_1-2" data-name="Capa 1">
    <g>
      <path fill="#113b33" d="M2489.58,465.87C2377.16,16.06,1986.21,4.58,1541.08,0c-444.67,3.58-836.7,16.58-948.53,465.87-50.41,217-50.97,828.61.02,1045.6,112.41,449.79,503.37,461.32,948.49,465.87,444.67-3.58,836.7-16.58,948.53-465.87,50.43-217.01,50.94-828.61,0-1045.6ZM716.5,477.93c26.3-146.85,166.97-287.48,313.82-313.82,303.77-51.84,717.7-52.23,1021.49,0,146.85,26.3,287.48,166.97,313.82,313.78,42.7,248.57,49.95,578.77,23.61,841.48-35.65-50.67-71.31-101.53-107.55-153.07-131.23-185.06-384.27-159.65-482.46,40.61-29.06,40.13-69.56,31.07-92.94-1.95-88.54-132.67-192.33-289.58-290.45-447.32-48.53-78.16-125.42-124.15-210.91-126.21-90.87-2.34-176.12,44.49-233.72,128.19-95.36,138.89-193.14,277.42-288.95,413.37-12.43-227.49-.84-489.75,34.23-695.07ZM2051.81,1813.24c-303.89,52.04-717.62,52.03-1021.53,0-187.3-34.16-324.82-223.06-327.73-408.86,131.96-185.2,262.36-370.77,392.62-559.55,50.12-75.96,144.59-88.15,192.96-7.84,99.27,159.56,203.85,317.74,293.14,451.32,39.83,59.96,105.11,95.46,174.38,95.07,192.56-6.09,160.47-185.28,290.21-192.61,42.87-.83,83.98,21.79,112.74,62.32,67.34,95.55,133.1,189.08,197.87,282.81-40.76,133.14-169.98,253.21-304.67,277.34h0Z"/>
      <path class="cls-1" d="M1758.05,677.43l22.43,44.86c7.59,15.18,11.39,22.77,16.46,29.35,4.5,5.84,9.73,11.07,15.57,15.57,6.58,5.07,14.17,8.87,29.35,16.46l44.86,22.43-44.86,22.43c-15.18,7.59-22.77,11.39-29.35,16.46-5.84,4.5-11.07,9.73-15.57,15.57-5.07,6.58-8.87,14.17-16.46,29.35l-22.43,44.86-22.43-44.86c-7.59-15.18-11.39-22.77-16.46-29.35-4.5-5.84-9.73-11.07-15.57-15.57-6.58-5.07-14.17-8.87-29.35-16.46l-44.86-22.43,44.86-22.43c15.18-7.59,22.77-11.39,29.35-16.46,5.84-4.5,11.07-9.73,15.57-15.57,5.07-6.58,8.87-14.17,16.46-29.35l22.43-44.86Z"/>
      <path class="cls-1" d="M2043.57,334.07l33.7,87.62c8.06,20.97,12.1,31.45,18.37,40.27,5.56,7.81,12.38,14.64,20.2,20.2,8.82,6.27,19.3,10.3,40.27,18.37l87.62,33.7-87.62,33.7c-20.96,8.06-31.45,12.1-40.27,18.37-7.82,5.56-14.64,12.38-20.2,20.2-6.27,8.82-10.3,19.3-18.37,40.27l-33.7,87.62-33.7-87.62c-8.06-20.96-12.1-31.45-18.37-40.27-5.56-7.82-12.38-14.64-20.2-20.2-8.82-6.27-19.3-10.3-40.27-18.37l-87.62-33.7,87.62-33.7c20.96-8.06,31.45-12.1,40.27-18.37,7.82-5.56,14.64-12.38,20.2-20.2,6.27-8.82,10.3-19.3,18.37-40.27l33.7-87.62Z"/>
    </g>
  </g>
</svg>