<?xml version="1.0" encoding="UTF-8"?>
<svg id="Capa_1" data-name="Capa 1" xmlns="http://www.w3.org/2000/svg" viewBox="0 0 22 22">
  <defs>
    <style>
      .cls-1 {
        fill: none;
        stroke: #4c6586;
        stroke-linecap: round;
        stroke-linejoin: round;
      }

      .cls-2 {
        fill: #4c6586;
      }
    </style>
  </defs>
  <g id="Capa_1-2" data-name="Capa 1-2">
    <g>
      <path class="cls-2" d="M19.87,6.11C18.82,1.91,15.16,1.8,11,1.76c-4.16.03-7.82.16-8.87,4.36-.47,2.03-.48,7.75,0,9.78,1.05,4.21,4.71,4.31,8.87,4.36,4.16-.03,7.82-.16,8.87-4.36.47-2.03.48-7.75,0-9.78h0ZM3.29,6.22c.25-1.37,1.56-2.69,2.93-2.93,2.84-.48,6.71-.49,9.55,0,1.37.25,2.69,1.56,2.93,2.93.4,2.32.47,5.41.22,7.87-.33-.47-.67-.95-1.01-1.43-1.23-1.73-3.59-1.49-4.51.38-.27.38-.65.29-.87-.02-.83-1.24-1.8-2.71-2.72-4.18-.45-.73-1.17-1.16-1.97-1.18-.85-.02-1.65.42-2.19,1.2-.89,1.3-1.81,2.59-2.7,3.86-.12-2.13,0-4.58.32-6.5h0ZM15.78,18.71c-2.84.49-6.71.49-9.55,0-1.75-.32-3.04-2.09-3.06-3.82,1.23-1.73,2.45-3.47,3.67-5.23.47-.71,1.35-.82,1.8-.07.93,1.49,1.91,2.97,2.74,4.22.37.56.98.89,1.63.89,1.8-.06,1.5-1.73,2.71-1.8.4,0,.79.2,1.05.58.63.89,1.24,1.77,1.85,2.64-.38,1.24-1.59,2.37-2.85,2.59h0Z"/>
      <path class="cls-1" d="M13.03,8.09l.21.42c.07.14.11.21.15.27.04.05.09.1.15.15.06.05.13.08.27.15l.42.21-.42.21c-.14.07-.21.11-.27.15-.05.04-.1.09-.15.15-.05.06-.08.13-.15.27l-.21.42-.21-.42c-.07-.14-.11-.21-.15-.27-.04-.05-.09-.1-.15-.15-.06-.05-.13-.08-.27-.15l-.42-.21.42-.21c.14-.07.21-.11.27-.15.05-.04.1-.09.15-.15.05-.06.08-.13.15-.27l.21-.42Z"/>
      <path class="cls-1" d="M15.7,4.88l.32.82c.08.2.11.29.17.38.05.07.12.14.19.19.08.06.18.1.38.17l.82.32-.82.32c-.2.08-.29.11-.38.17-.07.05-.14.12-.19.19-.06.08-.1.18-.17.38l-.32.82-.32-.82c-.08-.2-.11-.29-.17-.38-.05-.07-.12-.14-.19-.19-.08-.06-.18-.1-.38-.17l-.82-.32.82-.32c.2-.08.29-.11.38-.17.07-.05.14-.12.19-.19.06-.08.1-.18.17-.38l.32-.82h0Z"/>
    </g>
  </g>
</svg>